<svg id="Layer_1" data-name="Layer 1" xmlns="http://www.w3.org/2000/svg" viewBox="0 0 191.4 153.87"><defs><style>.cls-1{fill:#20425f;}</style></defs><path class="cls-1" d="M314.2,279.5c2.7,5.2,4.9,9.6,7.3,13.8,1.8,3.1.9,5.3-2.3,5.9a65.64,65.64,0,0,1-12.6.9c-.9,0-2.1-1.8-2.7-2.9-4.6-8.8-10.3-16.5-19.1-21.6-2.4-1.4-4.1-1.8-6.7-.2a35.77,35.77,0,0,1-28.5,4.2c-5-1.3-10.3-1.8-15.3-3.3a35.18,35.18,0,0,1-20-15.9c-1.3-2.1-2.3-2.9-5.1-2.4-19.3,3.2-37.8-9.9-41.7-29.2a36.78,36.78,0,0,1,27.2-43c2.1-.5,3.6-.9,3.8-3.7,1.3-14.5,8.5-25.3,21.8-31.2s26.1-4,37.9,4.6l1.9,1.4a23.92,23.92,0,0,0,2.1-1.3c21.8-18.1,52.2-8.8,60.4,18.3.4,1.3,2.4,2.6,3.9,3,16.6,3.5,27.2,13.3,30.9,29.9,1.8,8.1.3,15.9-3.2,23.3a9.59,9.59,0,0,0-.8,5.3,37,37,0,0,1-29.2,43.4,39.55,39.55,0,0,1-5.9.7Zm-18-24,.9-.2c.9-8.7,1.8-17.3,2.7-26.6l-22.4,4.4c-.6-7.7-1.3-15.1-1.9-22.6l-30.2,5.8c-1.1-9.2-2-17.7-3.1-26.6l-15.7,3.5c1.8,9.8,3.6,19.1,5.2,28.5.5,2.8,1,4.1,4.4,3.2,8.9-2.4,17.9-4.2,27-6.4.7,7.3,1.4,14.3,2,21.4l1.5.3c6.3-.9,12.7-1.3,18.9-2.9,4-1,4.8.7,5.7,3.5C292.7,245.7,294.5,250.6,296.2,255.5Z" transform="translate(-166.77 -146.25)"/></svg>